Iron Man.2008.1080p.BluRay.DTS.mkv
**********************************

TiTLE......  Iron Man
YEAR.......  2008
GENRE......  Action | Adventure | Sci-Fi | Thriller
iMDB RATE..  User Rating: 8.0/10 (162,673 votes)
iMDB URL...  http://www.imdb.com/title/tt0371746/
*************************************************
Awards:Nominated for 2 Oscars. 
Another 12 wins & 42 nominations

Video
Duration                         : 2h 6mn
Overall bit rate                 : 7 720 Kbps
Width                            : 1 920 pixels
Height                           : 816 pixels
Display aspect ratio             : 2.35:1
Frame rate                       : 23.976 fps
Stream size                      : 5.33 GiB (78%)

Audio
Format                           : DTS
Format/Info                      : Digital Theater Systems
Bit rate                         : 1 510 Kbps
Channel(s)                       : 6 channels
Channel positions                : Front: L C R, Surround: L R, LFE
Sampling rate                    : 48.0 KHz
Resolution                       : 24 bits
Stream size                      : 1.33 GiB (20%)
Language                         : English

Subtitles: English, French, Spanish, German, Czech,
Hungarian, Polish, Portuguese, rom, Swedish
*************************************************
Format                           : ASS
Codec ID                         : S_TEXT/ASS
Codec ID/Info                    : Advanced Sub Station Alpha
*************************************************************

